<?xml version="1.0" standalone="no"?>
<!DOCTYPE svg PUBLIC "-//W3C//DTD SVG 20010904//EN"
 "http://www.w3.org/TR/2001/REC-SVG-20010904/DTD/svg10.dtd">
<svg version="1.0" xmlns="http://www.w3.org/2000/svg"
 width="1365.000000pt" height="768.000000pt" viewBox="0 0 1365.000000 768.000000"
 preserveAspectRatio="xMidYMid meet">
<metadata>
Created by potrace 1.13, written by Peter Selinger 2001-2015
</metadata>
<g transform="translate(0.000000,768.000000) scale(0.100000,-0.100000)"
fill="#000000" stroke="none">
<path d="M5193 7213 c31 -2 83 -2 115 0 31 2 5 3 -58 3 -63 0 -89 -1 -57 -3z"/>
<path d="M4963 7203 c26 -2 68 -2 95 0 26 2 4 3 -48 3 -52 0 -74 -1 -47 -3z"/>
<path d="M5443 7203 c26 -2 67 -2 90 0 23 2 2 3 -48 3 -49 0 -68 -1 -42 -3z"/>
<path d="M4823 7193 c15 -2 39 -2 55 0 15 2 2 4 -28 4 -30 0 -43 -2 -27 -4z"/>
<path d="M5620 7194 c38 -8 90 -9 90 -2 0 4 -24 7 -52 7 -29 -1 -46 -3 -38 -5z"/>
<path d="M4728 7183 c12 -2 32 -2 45 0 12 2 2 4 -23 4 -25 0 -35 -2 -22 -4z"/>
<path d="M4648 7173 c12 -2 30 -2 40 0 9 3 -1 5 -23 4 -22 0 -30 -2 -17 -4z"/>
<path d="M4573 7163 c9 -2 25 -2 35 0 9 3 1 5 -18 5 -19 0 -27 -2 -17 -5z"/>
<path d="M4465 7150 c-42 -11 -1 -11 50 -1 34 7 35 9 10 9 -16 0 -43 -4 -60
-8z"/>
<path d="M4393 7133 c9 -2 23 -2 30 0 6 3 -1 5 -18 5 -16 0 -22 -2 -12 -5z"/>
<path d="M4338 7123 c6 -2 18 -2 25 0 6 3 1 5 -13 5 -14 0 -19 -2 -12 -5z"/>
<path d="M4260 7110 c-20 -6 -21 -8 -5 -8 11 0 31 4 45 8 20 6 21 8 5 8 -11 0
-31 -4 -45 -8z"/>
<path d="M4198 7093 c6 -2 18 -2 25 0 6 3 1 5 -13 5 -14 0 -19 -2 -12 -5z"/>
<path d="M4158 7083 c7 -3 16 -2 19 1 4 3 -2 6 -13 5 -11 0 -14 -3 -6 -6z"/>
<path d="M4075 7065 c-39 -14 -40 -14 -5 -8 41 7 82 22 60 22 -8 0 -33 -7 -55
-14z"/>
<path d="M4008 7043 c7 -3 16 -2 19 1 4 3 -2 6 -13 5 -11 0 -14 -3 -6 -6z"/>
<path d="M8842 7038 c-7 -7 -12 -18 -12 -26 0 -12 -5 -11 -27 2 -16 10 -3 -5
27 -33 30 -28 60 -50 65 -50 6 0 -5 12 -23 27 -61 51 -31 106 32 58 47 -35 55
-33 13 4 -37 32 -56 37 -75 18z"/>
<path d="M3945 7030 c-13 -5 -14 -9 -5 -9 8 0 24 4 35 9 13 5 14 9 5 9 -8 0
-24 -4 -35 -9z"/>
<path d="M3777 6978 c-49 -16 -87 -32 -84 -34 2 -2 48 12 103 30 54 19 92 34
84 34 -8 0 -55 -13 -103 -30z"/>
<path d="M8750 6972 c0 -6 5 -14 10 -17 6 -4 8 -11 5 -16 -3 -5 0 -6 7 -4 8 3
25 -6 38 -20 24 -25 60 -34 60 -14 0 5 -4 7 -10 4 -14 -9 -71 37 -65 53 3 7 0
10 -6 7 -5 -4 -16 -1 -24 5 -10 8 -15 9 -15 2z"/>
<path d="M3605 6915 c-25 -12 -26 -14 -5 -9 28 7 60 23 45 23 -5 0 -23 -6 -40
-14z"/>
<path d="M3540 6890 c-8 -5 -10 -10 -5 -10 6 0 17 5 25 10 8 5 11 10 5 10 -5
0 -17 -5 -25 -10z"/>
<path d="M8717 6882 c-20 -22 -22 -38 -6 -48 7 -4 10 -1 7 7 -7 19 10 49 27
49 8 0 15 -7 15 -16 0 -8 4 -12 10 -9 5 3 15 -3 21 -14 12 -19 39 -18 39 1 0
5 -4 7 -9 4 -4 -3 -19 6 -31 19 -28 30 -51 32 -73 7z"/>
<path d="M3445 6850 c-33 -15 -55 -28 -50 -28 13 0 133 56 120 57 -5 0 -37
-13 -70 -29z"/>
<path d="M8744 6835 c-15 -39 22 -60 47 -27 13 15 12 16 -3 4 -21 -17 -41 -6
-35 19 6 23 -1 25 -9 4z"/>
<path d="M3330 6800 c-19 -11 -30 -19 -25 -19 6 0 26 8 45 19 19 11 31 19 25
19 -5 0 -26 -8 -45 -19z"/>
<path d="M8642 6798 c-31 -31 1 -88 49 -88 32 0 49 18 48 50 -1 23 -2 22 -10
-7 -8 -26 -15 -33 -34 -33 -32 0 -32 20 0 50 19 18 22 26 13 32 -19 12 -52 10
-66 -4z m58 -6 c0 -17 -48 -54 -55 -43 -12 21 5 51 31 51 13 0 24 -4 24 -8z"/>
<path d="M3178 6729 c-32 -16 -58 -32 -58 -34 0 -5 119 52 129 61 13 12 -22
-1 -71 -27z"/>
<path d="M8519 6709 c-16 -17 -29 -34 -29 -38 1 -3 26 -26 57 -51 l55 -44 24
29 c33 42 31 77 -7 109 -40 34 -65 33 -100 -5z m90 -5 c36 -30 40 -63 12 -89
-19 -16 -21 -16 -48 3 -15 11 -37 29 -47 41 -19 21 -19 22 4 46 30 31 41 31
79 -1z"/>
<path d="M3038 6654 c-27 -13 -48 -27 -48 -29 0 -3 23 6 50 20 28 14 50 28 50
30 0 7 1 7 -52 -21z"/>
<path d="M2890 6569 c-47 -28 -89 -56 -95 -62 -5 -6 1 -4 15 4 14 9 58 35 98
58 62 37 81 51 70 51 -2 0 -41 -23 -88 -51z"/>
<path d="M8527 6539 c7 -7 15 -10 18 -7 3 3 -2 9 -12 12 -14 6 -15 5 -6 -5z"/>
<path d="M8481 6496 c-9 -10 -9 -16 -1 -21 17 -10 37 12 24 25 -8 8 -15 6 -23
-4z"/>
<path d="M2692 6445 c-45 -31 -82 -58 -82 -60 0 -5 145 89 165 106 22 21 -6 5
-83 -46z"/>
<path d="M8435 6440 c-4 -6 -3 -16 3 -22 6 -6 12 -6 17 2 4 6 3 16 -3 22 -6 6
-12 6 -17 -2z"/>
<path d="M8385 6381 c-7 -12 12 -24 25 -16 11 7 4 25 -10 25 -5 0 -11 -4 -15
-9z"/>
<path d="M2478 6293 c-357 -270 -715 -636 -973 -993 -76 -104 -176 -257 -220
-335 -48 -85 -20 -46 64 88 196 314 413 580 698 858 147 142 387 346 506 427
41 29 55 42 44 42 -1 0 -55 -39 -119 -87z"/>
<path d="M8341 6326 c-9 -10 -9 -16 -1 -21 17 -10 37 12 24 25 -8 8 -15 6 -23
-4z"/>
<path d="M8295 6270 c-4 -6 -3 -16 3 -22 6 -6 12 -6 17 2 4 6 3 16 -3 22 -6 6
-12 6 -17 -2z"/>
<path d="M8245 6211 c-7 -12 12 -24 25 -16 11 7 4 25 -10 25 -5 0 -11 -4 -15
-9z"/>
<path d="M5153 6173 c54 -2 139 -2 190 0 51 1 7 3 -98 3 -104 0 -146 -2 -92
-3z"/>
<path d="M4948 6163 c17 -2 47 -2 65 0 17 2 3 4 -33 4 -36 0 -50 -2 -32 -4z"/>
<path d="M5488 6163 c18 -2 45 -2 60 0 15 2 0 4 -33 4 -33 0 -45 -2 -27 -4z"/>
<path d="M8200 6160 c-12 -7 -12 -12 -2 -22 9 -9 15 -9 24 0 8 8 9 15 2 22 -5
5 -15 6 -24 0z"/>
<path d="M4848 6153 c12 -2 32 -2 45 0 12 2 2 4 -23 4 -25 0 -35 -2 -22 -4z"/>
<path d="M5588 6153 c7 -3 16 -2 19 1 4 3 -2 6 -13 5 -11 0 -14 -3 -6 -6z"/>
<path d="M4773 6143 c9 -2 25 -2 35 0 9 3 1 5 -18 5 -19 0 -27 -2 -17 -5z"/>
<path d="M4655 6130 c-42 -11 -1 -11 50 -1 34 7 35 9 10 9 -16 0 -43 -4 -60
-8z"/>
<path d="M4588 6113 c6 -2 18 -2 25 0 6 3 1 5 -13 5 -14 0 -19 -2 -12 -5z"/>
<path d="M4500 6100 c-20 -6 -21 -8 -5 -8 11 0 34 4 50 8 27 7 27 8 5 8 -14 0
-36 -4 -50 -8z"/>
<path d="M8144 6099 c-8 -14 18 -31 30 -19 9 9 0 30 -14 30 -5 0 -12 -5 -16
-11z"/>
<path d="M4410 6080 c-20 -6 -21 -8 -5 -8 11 0 31 4 45 8 20 6 21 8 5 8 -11 0
-31 -4 -45 -8z"/>
<path d="M8100 6045 c-10 -12 -9 -16 5 -21 23 -9 40 10 22 25 -11 9 -17 8 -27
-4z"/>
<path d="M8054 5989 c-10 -17 13 -36 27 -22 12 12 4 33 -11 33 -5 0 -12 -5
-16 -11z"/>
<path d="M4022 5963 c-24 -8 -41 -17 -39 -19 5 -5 69 16 82 27 11 11 10 11
-43 -8z"/>
<path d="M3940 5930 c-8 -5 -10 -10 -5 -10 6 0 17 5 25 10 8 5 11 10 5 10 -5
0 -17 -5 -25 -10z"/>
<path d="M8004 5929 c-3 -6 0 -15 7 -20 14 -8 32 9 23 23 -7 11 -22 10 -30 -3z"/>
<path d="M3890 5910 c-8 -5 -10 -10 -5 -10 6 0 17 5 25 10 8 5 11 10 5 10 -5
0 -17 -5 -25 -10z"/>
<path d="M3820 5880 c-19 -11 -30 -19 -25 -19 6 0 26 8 45 19 19 11 31 19 25
19 -5 0 -26 -8 -45 -19z"/>
<path d="M7961 5876 c-12 -14 -5 -26 16 -26 15 0 18 26 4 34 -5 3 -14 0 -20
-8z"/>
<path d="M3648 5799 c-65 -32 -118 -61 -118 -64 0 -5 239 112 249 121 16 15
-30 -5 -131 -57z"/>
<path d="M7914 5819 c-3 -6 -1 -16 5 -22 9 -9 14 -8 21 3 9 15 4 30 -10 30 -5
0 -12 -5 -16 -11z"/>
<path d="M7865 5759 c-10 -15 1 -23 20 -15 9 3 13 10 10 16 -8 13 -22 13 -30
-1z"/>
<path d="M6130 5740 c0 -6 11 -28 25 -50 14 -22 25 -51 25 -65 0 -15 6 -25 14
-25 9 0 12 7 9 19 -3 12 8 43 27 75 24 44 28 56 16 56 -9 0 -22 -13 -31 -30
-19 -37 -26 -37 -47 0 -17 29 -38 40 -38 20z"/>
<path d="M6280 5675 l0 -75 55 0 c30 0 55 5 55 10 0 6 -18 10 -40 10 l-40 0 0
65 c0 51 -3 65 -15 65 -12 0 -15 -15 -15 -75z"/>
<path d="M6410 5676 l0 -76 49 0 c60 0 81 18 81 69 0 55 -18 73 -78 79 l-52 5
0 -77z m102 19 c17 -38 -3 -75 -42 -75 -29 0 -30 1 -30 50 0 49 1 50 30 50 23
0 33 -6 42 -25z"/>
<path d="M3488 5714 c-38 -20 -36 -28 2 -9 17 9 30 18 30 20 0 7 -1 6 -32 -11z"/>
<path d="M7821 5706 c-9 -10 -9 -16 -1 -21 17 -10 37 12 24 25 -8 8 -15 6 -23
-4z"/>
<path d="M3430 5680 c-9 -6 -10 -10 -3 -10 6 0 15 5 18 10 8 12 4 12 -15 0z"/>
<path d="M7775 5650 c-11 -17 5 -32 21 -19 7 6 11 15 8 20 -7 12 -21 11 -29
-1z"/>
<path d="M7725 5589 c-10 -15 1 -23 20 -15 9 3 13 10 10 16 -8 13 -22 13 -30
-1z"/>
<path d="M7681 5536 c-9 -10 -9 -16 -1 -21 17 -10 37 12 24 25 -8 8 -15 6 -23
-4z"/>
<path d="M3170 5512 c-400 -303 -690 -609 -925 -972 -59 -91 -94 -151 -82
-140 3 3 39 57 79 120 228 356 519 670 867 934 62 47 109 86 105 86 -5 -1 -25
-13 -44 -28z"/>
<path d="M5860 5486 c0 -4 10 -21 21 -38 12 -17 25 -44 29 -62 l8 -31 1 30 c1
17 12 47 26 68 14 20 23 37 21 37 -3 0 -16 -16 -30 -36 l-24 -36 -26 38 c-14
21 -26 35 -26 30z"/>
<path d="M6393 5425 c0 -38 2 -53 4 -32 2 20 2 52 0 70 -2 17 -4 1 -4 -38z"/>
<path d="M7635 5480 c-11 -17 5 -32 21 -19 7 6 11 15 8 20 -7 12 -21 11 -29
-1z"/>
<path d="M5975 5439 c-4 -6 -5 -12 -2 -15 2 -3 7 2 10 11 7 17 1 20 -8 4z"/>
<path d="M6080 5439 c0 -5 5 -7 10 -4 6 3 10 8 10 11 0 2 -4 4 -10 4 -5 0 -10
-5 -10 -11z"/>
<path d="M6138 5407 c2 -23 7 -45 11 -49 3 -4 5 12 3 35 -2 23 -7 45 -11 49
-3 4 -5 -12 -3 -35z"/>
<path d="M6182 5395 c1 -46 2 -47 5 -10 2 22 11 45 20 52 13 10 13 12 -6 10
-19 -1 -21 -7 -19 -52z"/>
<path d="M6247 5443 c-15 -15 -5 -32 25 -42 17 -6 33 -9 35 -7 2 2 -10 9 -28
15 -22 7 -29 15 -25 26 6 16 3 19 -7 8z"/>
<path d="M6433 5400 c0 -30 2 -43 4 -27 2 15 2 39 0 55 -2 15 -4 2 -4 -28z"/>
<path d="M6566 5434 c-17 -45 1 -85 39 -83 17 1 16 2 -5 8 -14 4 -26 14 -28
23 -2 13 6 18 35 21 l38 4 -37 1 c-40 2 -46 10 -26 30 8 8 8 12 1 12 -6 0 -14
-7 -17 -16z"/>
<path d="M6626 5437 c3 -10 9 -15 12 -12 3 3 0 11 -7 18 -10 9 -11 8 -5 -6z"/>
<path d="M6670 5429 c-15 -28 -5 -66 20 -74 28 -9 60 3 60 23 -1 16 -2 15 -11
0 -12 -22 -42 -23 -60 -2 -10 12 -10 22 -2 45 13 34 9 38 -7 8z"/>
<path d="M6741 5424 c0 -11 3 -14 6 -6 3 7 2 16 -1 19 -3 4 -6 -2 -5 -13z"/>
<path d="M7586 5424 c-8 -22 -8 -24 8 -24 21 0 28 16 12 29 -11 9 -15 8 -20
-5z"/>
<path d="M6040 5420 c0 -5 -15 -10 -34 -10 -19 0 -37 -3 -39 -7 -3 -5 15 -6
39 -4 29 2 44 8 44 17 0 8 -2 14 -5 14 -3 0 -5 -4 -5 -10z"/>
<path d="M6073 5384 c-8 -20 10 -37 33 -31 15 4 14 5 -5 6 -18 1 -22 5 -18 21
6 24 -1 27 -10 4z"/>
<path d="M6503 5375 c-7 -8 -9 -16 -4 -19 5 -3 12 1 15 10 8 22 4 25 -11 9z"/>
<path d="M5979 5367 c7 -10 21 -17 31 -17 10 0 24 7 31 17 13 15 12 15 -8 2
-20 -12 -26 -12 -45 0 -21 13 -22 13 -9 -2z"/>
<path d="M6244 5368 c4 -21 51 -21 66 -1 12 15 12 16 0 6 -17 -16 -56 -17 -63
-3 -3 6 -4 5 -3 -2z"/>
<path d="M7537 5365 c-8 -18 11 -31 25 -17 11 11 3 32 -12 32 -4 0 -10 -7 -13
-15z"/>
<path d="M7495 5310 c-8 -13 4 -32 16 -25 12 8 12 35 0 35 -6 0 -13 -4 -16
-10z"/>
<path d="M7447 5256 c-7 -19 11 -32 24 -19 6 6 5 14 -4 22 -12 9 -16 8 -20 -3z"/>
<path d="M6003 5180 c0 -41 2 -58 4 -37 2 20 2 54 0 75 -2 20 -4 3 -4 -38z"/>
<path d="M6570 5181 c0 -40 4 -70 8 -67 9 5 5 126 -3 135 -3 2 -5 -28 -5 -68z"/>
<path d="M6723 5180 c0 -41 2 -58 4 -37 2 20 2 54 0 75 -2 20 -4 3 -4 -38z"/>
<path d="M5940 5210 c-12 -8 -10 -10 8 -10 13 0 20 4 17 10 -7 12 -6 12 -25 0z"/>
<path d="M6800 5210 c-12 -8 -10 -10 8 -10 13 0 20 4 17 10 -7 12 -6 12 -25 0z"/>
<path d="M5805 5200 c-3 -5 -1 -10 4 -10 6 0 11 5 11 10 0 6 -2 10 -4 10 -3 0
-8 -4 -11 -10z"/>
<path d="M5903 5160 c0 -30 2 -43 4 -27 2 15 2 39 0 55 -2 15 -4 2 -4 -28z"/>
<path d="M6058 5198 c7 -7 13 -30 13 -52 2 -33 3 -35 6 -12 6 37 -4 76 -19 76
-9 0 -9 -3 0 -12z"/>
<path d="M6218 5185 c-12 -27 2 -75 22 -75 7 0 4 7 -4 16 -9 8 -16 24 -16 34
0 10 7 26 16 34 8 9 11 16 4 16 -6 0 -16 -11 -22 -25z"/>
<path d="M6281 5193 c7 -10 15 -20 16 -22 2 -2 3 3 3 11 0 9 -7 19 -16 22 -15
6 -15 4 -3 -11z"/>
<path d="M6333 5160 c0 -30 2 -43 4 -27 2 15 2 39 0 55 -2 15 -4 2 -4 -28z"/>
<path d="M6374 5195 c-7 -17 3 -35 19 -35 8 0 7 3 -2 9 -8 5 -11 16 -8 25 4 9
4 16 1 16 -2 0 -7 -7 -10 -15z"/>
<path d="M6422 5196 c7 -8 15 -12 17 -11 5 6 -10 25 -20 25 -5 0 -4 -6 3 -14z"/>
<path d="M6528 5167 c2 -23 7 -45 11 -49 3 -4 5 12 3 35 -2 23 -7 45 -11 49
-3 4 -5 -12 -3 -35z"/>
<path d="M6638 5200 c6 -8 12 -26 12 -40 0 -14 -6 -32 -12 -40 -11 -12 -10
-12 5 -1 9 7 17 26 17 41 0 15 -8 34 -17 41 -15 11 -16 11 -5 -1z"/>
<path d="M6763 5160 c0 -30 2 -43 4 -27 2 15 2 39 0 55 -2 15 -4 2 -4 -28z"/>
<path d="M6850 5205 c0 -5 5 -17 10 -25 5 -8 10 -10 10 -5 0 6 -5 17 -10 25
-5 8 -10 11 -10 5z"/>
<path d="M7397 5195 c-8 -18 11 -31 25 -17 11 11 3 32 -12 32 -4 0 -10 -7 -13
-15z"/>
<path d="M6464 5145 c-7 -17 3 -35 19 -35 8 0 7 3 -2 9 -8 5 -11 16 -8 25 4 9
4 16 1 16 -2 0 -7 -7 -10 -15z"/>
<path d="M5850 5141 c0 -7 -4 -9 -10 -6 -6 4 -7 -1 -3 -11 6 -15 7 -15 15 1 6
9 7 19 4 22 -3 4 -6 1 -6 -6z"/>
<path d="M6283 5130 c-11 -16 -10 -18 2 -14 8 4 15 12 15 20 0 19 -3 18 -17
-6z"/>
<path d="M7352 5134 c4 -21 22 -23 26 -1 2 10 -3 17 -13 17 -10 0 -15 -6 -13
-16z"/>
<path d="M5770 5119 c0 -5 5 -7 10 -4 6 3 10 8 10 11 0 2 -4 4 -10 4 -5 0 -10
-5 -10 -11z"/>
<path d="M5950 5120 c0 -5 5 -10 11 -10 5 0 7 5 4 10 -3 6 -8 10 -11 10 -2 0
-4 -4 -4 -10z"/>
<path d="M6377 5119 c7 -7 15 -10 18 -7 3 3 -2 9 -12 12 -14 6 -15 5 -6 -5z"/>
<path d="M6420 5120 c-9 -6 -10 -10 -3 -10 6 0 15 5 18 10 8 12 4 12 -15 0z"/>
<path d="M6810 5120 c0 -5 5 -10 11 -10 5 0 7 5 4 10 -3 6 -8 10 -11 10 -2 0
-4 -4 -4 -10z"/>
<path d="M6885 5120 c3 -5 8 -10 11 -10 2 0 4 5 4 10 0 6 -5 10 -11 10 -5 0
-7 -4 -4 -10z"/>
<path d="M6872 5084 c-7 -8 -8 -14 -3 -14 10 0 25 19 20 25 -2 1 -10 -3 -17
-11z"/>
<path d="M7305 5090 c-10 -17 12 -37 25 -24 8 8 6 15 -4 23 -10 9 -16 9 -21 1z"/>
<path d="M7254 5029 c-10 -17 13 -36 27 -22 12 12 4 33 -11 33 -5 0 -12 -5
-16 -11z"/>
<path d="M5763 4940 c0 -41 2 -58 4 -37 2 20 2 54 0 75 -2 20 -4 3 -4 -38z"/>
<path d="M5803 4940 c0 -41 2 -58 4 -37 2 20 2 54 0 75 -2 20 -4 3 -4 -38z"/>
<path d="M7206 4971 c-3 -5 0 -14 8 -20 11 -9 15 -8 20 5 3 8 6 18 6 20 0 8
-29 4 -34 -5z"/>
<path d="M5893 4959 c11 -7 18 -24 19 -52 l1 -42 4 38 c4 38 -9 67 -31 67 -6
0 -3 -5 7 -11z"/>
<path d="M5952 4958 c-18 -18 -15 -64 6 -79 14 -11 15 -11 5 1 -19 21 -16 67
5 79 9 6 12 11 7 11 -6 0 -16 -5 -23 -12z"/>
<path d="M6004 4954 c9 -8 14 -20 11 -25 -4 -5 -1 -9 4 -9 14 0 14 6 1 31 -6
10 -15 19 -21 19 -6 0 -3 -7 5 -16z"/>
<path d="M6054 4955 c-7 -17 3 -35 19 -34 9 0 9 2 0 6 -7 2 -13 11 -13 18 0 7
6 16 13 18 9 4 9 6 -1 6 -7 1 -15 -6 -18 -14z"/>
<path d="M6102 4956 c7 -8 15 -12 17 -11 5 6 -10 25 -20 25 -5 0 -4 -6 3 -14z"/>
<path d="M6151 4956 c-9 -10 -7 -17 6 -27 16 -12 17 -12 6 2 -10 12 -10 18 -1
27 7 7 9 12 6 12 -3 0 -11 -6 -17 -14z"/>
<path d="M6181 4967 c2 -1 13 -9 24 -17 19 -14 19 -14 6 3 -7 9 -18 17 -24 17
-6 0 -8 -1 -6 -3z"/>
<path d="M6309 4953 c-13 -17 -13 -17 6 -3 11 8 22 16 24 17 2 2 0 3 -6 3 -6
0 -17 -8 -24 -17z"/>
<path d="M6363 4952 c21 -23 22 -46 1 -66 -8 -9 -11 -16 -5 -16 33 0 37 82 4
94 -16 6 -16 6 0 -12z"/>
<path d="M6412 4920 c1 -42 2 -46 5 -18 3 24 12 43 26 53 12 8 16 15 10 15 -7
0 -15 -5 -19 -11 -4 -8 -9 -7 -15 2 -5 9 -8 -7 -7 -41z"/>
<path d="M6533 4920 c0 -30 2 -43 4 -27 2 15 2 39 0 55 -2 15 -4 2 -4 -28z"/>
<path d="M6583 4963 c-8 -3 -12 -22 -11 -51 l1 -47 4 40 c3 22 9 45 15 52 11
14 10 14 -9 6z"/>
<path d="M6623 4959 c11 -7 18 -24 19 -52 l1 -42 4 38 c4 38 -9 67 -31 67 -6
0 -3 -5 7 -11z"/>
<path d="M6712 4938 c-2 -42 6 -68 20 -68 7 0 7 4 0 13 -6 7 -12 30 -15 52
l-4 40 -1 -37z"/>
<path d="M6822 4920 c1 -38 3 -44 5 -20 8 60 40 80 61 38 6 -13 11 -18 11 -12
1 5 -5 19 -13 30 -12 16 -18 17 -35 7 -15 -10 -21 -10 -24 0 -3 7 -5 -13 -5
-43z"/>
<path d="M5843 4915 c0 -27 2 -38 4 -22 2 15 2 37 0 50 -2 12 -4 0 -4 -28z"/>
<path d="M7165 4920 c-4 -6 -3 -16 3 -22 6 -6 12 -6 17 2 4 6 3 16 -3 22 -6 6
-12 6 -17 -2z"/>
<path d="M6090 4916 c0 -2 7 -7 16 -10 8 -3 12 -2 9 4 -6 10 -25 14 -25 6z"/>
<path d="M6199 4911 c9 -6 11 -16 7 -27 -6 -15 -4 -16 5 -7 14 14 5 43 -13 43
-10 0 -9 -3 1 -9z"/>
<path d="M1235 4880 c-9 -16 -13 -30 -11 -30 3 0 12 14 21 30 9 17 13 30 11
30 -3 0 -12 -13 -21 -30z"/>
<path d="M6781 4894 c0 -11 3 -14 6 -6 3 7 2 16 -1 19 -3 4 -6 -2 -5 -13z"/>
<path d="M6906 4886 c4 -16 1 -33 -7 -44 -13 -15 -12 -16 2 -4 23 18 29 45 12
61 -12 10 -13 8 -7 -13z"/>
<path d="M6009 4883 c-13 -16 -12 -17 4 -4 16 13 21 21 13 21 -2 0 -10 -8 -17
-17z"/>
<path d="M6040 4896 c0 -2 8 -10 18 -17 15 -13 16 -12 3 4 -13 16 -21 21 -21
13z"/>
<path d="M6140 4891 c0 -10 19 -25 25 -20 1 2 -3 10 -11 17 -8 7 -14 8 -14 3z"/>
<path d="M6300 4891 c0 -10 19 -25 25 -20 1 2 -3 10 -11 17 -8 7 -14 8 -14 3z"/>
<path d="M7114 4859 c-3 -6 -1 -16 5 -22 9 -9 14 -8 21 3 9 15 4 30 -10 30 -5
0 -12 -5 -16 -11z"/>
<path d="M6665 4840 c-3 -5 -1 -10 4 -10 6 0 11 5 11 10 0 6 -2 10 -4 10 -3 0
-8 -4 -11 -10z"/>
<path d="M1180 4780 c-17 -33 -28 -60 -25 -60 2 0 18 27 35 60 17 33 28 60 25
60 -2 0 -18 -27 -35 -60z"/>
<path d="M7065 4801 c-3 -5 -1 -12 5 -16 12 -7 30 2 30 16 0 12 -27 12 -35 0z"/>
<path d="M7025 4750 c-4 -6 -3 -16 3 -22 6 -6 12 -6 17 2 4 6 3 16 -3 22 -6 6
-12 6 -17 -2z"/>
<path d="M6975 4690 c-11 -17 5 -32 21 -19 7 6 11 15 8 20 -7 12 -21 11 -29
-1z"/>
<path d="M6925 4631 c-3 -5 -1 -12 5 -16 12 -7 30 2 30 16 0 12 -27 12 -35 0z"/>
<path d="M1042 4500 c-23 -50 -42 -94 -41 -98 0 -4 20 35 45 87 24 52 43 96
41 98 -2 2 -23 -37 -45 -87z"/>
<path d="M6885 4580 c-4 -6 -3 -16 3 -22 6 -6 12 -6 17 2 4 6 3 16 -3 22 -6 6
-12 6 -17 -2z"/>
<path d="M6835 4520 c-11 -17 5 -32 21 -19 7 6 11 15 8 20 -7 12 -21 11 -29
-1z"/>
<path d="M6791 4466 c-9 -10 -9 -16 -1 -21 17 -10 37 12 24 25 -8 8 -15 6 -23
-4z"/>
<path d="M2643 4400 c0 -41 2 -58 4 -37 4 37 5 37 48 37 42 0 44 -1 48 -32 2
-18 4 -1 4 37 0 44 -2 59 -6 40 -5 -27 -10 -30 -48 -33 -40 -3 -42 -2 -46 30
-2 18 -4 -1 -4 -42z"/>
<path d="M3003 4405 c0 -38 2 -53 4 -32 2 20 2 52 0 70 -2 17 -4 1 -4 -38z"/>
<path d="M3113 4405 c0 -38 2 -54 4 -35 3 19 10 41 16 49 9 11 9 13 0 8 -7 -5
-13 2 -16 20 -2 16 -4 -3 -4 -42z"/>
<path d="M3049 4446 c-8 -41 3 -105 19 -111 14 -5 15 -4 5 6 -7 7 -13 28 -13
46 0 20 5 33 13 33 8 0 9 3 1 8 -6 4 -13 14 -16 22 -4 12 -6 11 -9 -4z"/>
<path d="M2786 4414 c-12 -31 -6 -63 14 -74 22 -12 60 -5 60 11 0 5 -9 4 -19
-3 -15 -9 -23 -9 -35 1 -26 22 -19 31 24 31 22 0 40 4 40 8 0 16 -28 47 -36
39 -4 -4 -2 -7 4 -7 7 0 12 -7 12 -15 0 -10 -10 -15 -30 -15 -32 0 -37 9 -18
28 8 8 8 12 1 12 -6 0 -14 -7 -17 -16z"/>
<path d="M2895 4420 c-3 -6 1 -7 9 -4 18 7 21 14 7 14 -6 0 -13 -4 -16 -10z"/>
<path d="M2946 4418 c12 -20 13 -57 2 -64 -6 -4 -5 -10 3 -15 20 -13 31 -11
22 4 -4 6 -8 26 -9 42 -3 44 -3 45 -15 45 -5 0 -7 -5 -3 -12z"/>
<path d="M3168 4418 c7 -7 13 -28 13 -47 1 -26 3 -29 6 -12 6 31 -5 71 -19 71
-9 0 -9 -3 0 -12z"/>
<path d="M3226 4393 c9 -21 18 -44 21 -51 3 -7 -3 -22 -13 -33 -15 -17 -15
-19 -2 -14 9 4 21 20 27 37 13 37 14 48 2 30 -6 -10 -13 -2 -25 27 -8 23 -18
41 -21 41 -3 0 2 -17 11 -37z"/>
<path d="M3281 4423 c-1 -6 -4 -20 -7 -30 -5 -17 -5 -17 6 0 6 10 9 23 6 30
-3 9 -5 9 -5 0z"/>
<path d="M6741 4407 c-9 -12 -8 -16 3 -20 19 -7 32 11 19 24 -6 6 -14 5 -22
-4z"/>
<path d="M986 4375 c-9 -26 -7 -32 5 -12 6 10 9 21 6 23 -2 3 -7 -2 -11 -11z"/>
<path d="M2135 4360 c-9 -16 -13 -30 -11 -30 3 0 12 14 21 30 9 17 13 30 11
30 -3 0 -12 -13 -21 -30z"/>
<path d="M2918 4383 c7 -3 16 -2 19 1 4 3 -2 6 -13 5 -11 0 -14 -3 -6 -6z"/>
<path d="M2893 4360 c1 -16 9 -26 22 -28 18 -3 18 -3 4 10 -9 7 -19 20 -23 28
-3 8 -4 4 -3 -10z"/>
<path d="M6695 4351 c-7 -12 12 -24 25 -16 11 7 4 25 -10 25 -5 0 -11 -4 -15
-9z"/>
<path d="M956 4300 c-22 -56 -19 -65 5 -11 11 24 18 46 15 48 -2 2 -11 -14
-20 -37z"/>
<path d="M2028 4154 c-44 -91 -79 -167 -77 -169 2 -2 41 73 86 166 45 93 79
169 77 169 -3 0 -41 -74 -86 -166z"/>
<path d="M921 4209 c-6 -18 -9 -34 -7 -36 2 -2 9 10 15 28 6 18 9 34 7 36 -2
2 -9 -10 -15 -28z"/>
<path d="M2883 4160 c0 -41 2 -58 4 -37 2 20 2 54 0 75 -2 20 -4 3 -4 -38z"/>
<path d="M2980 4220 c0 -5 7 -7 15 -4 8 4 15 8 15 10 0 2 -7 4 -15 4 -8 0 -15
-4 -15 -10z"/>
<path d="M2967 4194 c-4 -4 -2 -13 4 -20 6 -8 9 -27 7 -44 -3 -16 -1 -30 4
-30 4 0 8 18 8 40 0 22 0 43 1 47 1 10 -16 15 -24 7z"/>
<path d="M2923 4140 c0 -30 2 -43 4 -27 2 15 2 39 0 55 -2 15 -4 2 -4 -28z"/>
<path d="M3030 4169 c-28 -51 30 -104 68 -64 16 16 16 16 -6 4 -16 -10 -27
-11 -39 -3 -33 20 -26 34 16 34 27 0 41 4 41 13 0 15 -20 37 -34 37 -5 0 -1
-6 10 -14 25 -19 14 -28 -27 -24 -31 3 -32 4 -15 21 10 9 13 17 7 17 -6 0 -15
-9 -21 -21z"/>
<path d="M7715 4147 c14 -24 25 -58 25 -75 0 -22 5 -32 15 -32 10 0 15 10 15
32 0 17 11 51 25 75 20 34 23 43 11 43 -9 0 -22 -13 -31 -30 -9 -16 -18 -30
-20 -30 -2 0 -11 14 -20 30 -9 17 -22 30 -31 30 -12 0 -9 -9 11 -43z"/>
<path d="M7850 4115 l0 -75 50 0 c58 0 68 17 13 22 l-38 3 -3 63 c-4 88 -22
78 -22 -13z"/>
<path d="M7980 4115 l0 -75 50 0 c58 0 68 17 13 22 l-38 3 -3 63 c-4 88 -22
78 -22 -13z"/>
<path d="M871 4069 c-12 -35 -21 -68 -20 -73 0 -6 11 20 25 58 13 38 22 71 20
73 -2 2 -13 -24 -25 -58z"/>
<path d="M4540 3929 l0 -172 101 5 c110 5 138 18 172 76 25 43 26 138 1 188
-28 57 -69 74 -181 74 l-93 0 0 -171z m187 96 c31 -22 47 -85 33 -135 -13 -47
-48 -70 -110 -70 l-40 0 0 110 0 110 48 0 c27 0 57 -7 69 -15z"/>
<path d="M4926 3943 c-32 -87 -61 -164 -64 -170 -3 -9 7 -13 32 -13 32 0 36 3
47 40 l12 40 67 0 67 0 16 -40 c13 -35 20 -40 46 -40 18 0 31 5 31 13 -1 6
-27 82 -59 167 l-57 155 -40 3 -39 2 -59 -157z m138 -30 c7 -22 4 -23 -38 -23
-25 0 -46 4 -46 9 0 7 20 68 36 111 5 14 28 -31 48 -97z"/>
<path d="M5220 3930 l0 -170 120 0 120 0 0 30 0 29 -82 3 -83 3 -3 138 -3 137
-34 0 -35 0 0 -170z"/>
<path d="M5477 4008 c54 -87 58 -98 63 -168 l5 -75 33 -3 32 -3 0 63 c0 60 3
69 65 171 l64 107 -39 0 c-38 0 -41 -3 -77 -65 -21 -35 -40 -65 -43 -65 -3 0
-22 30 -43 65 -36 63 -39 65 -77 65 l-40 0 57 -92z"/>
<path d="M831 3939 c-7 -22 -11 -43 -8 -45 2 -2 9 14 16 37 7 22 11 43 8 45
-2 2 -9 -14 -16 -37z"/>
<path d="M1936 3955 c-9 -26 -7 -32 5 -12 6 10 9 21 6 23 -2 3 -7 -2 -11 -11z"/>
<path d="M5770 3935 l0 -25 115 0 115 0 0 25 0 25 -115 0 -115 0 0 -25z"/>
<path d="M7520 3935 c0 -5 10 -21 21 -35 13 -17 17 -18 10 -5 -17 33 -31 51
-31 40z"/>
<path d="M8172 3921 c-7 -19 -4 -126 4 -119 2 2 4 31 5 64 1 32 7 62 13 66 8
5 7 8 -2 8 -7 0 -16 -9 -20 -19z"/>
<path d="M1916 3905 c-9 -26 -7 -32 5 -12 6 10 9 21 6 23 -2 3 -7 -2 -11 -11z"/>
<path d="M7692 3878 c7 -15 15 -23 17 -17 2 6 -4 18 -13 27 -15 15 -15 15 -4
-10z"/>
<path d="M7739 3883 c-13 -16 -12 -17 4 -4 9 7 17 15 17 17 0 8 -8 3 -21 -13z"/>
<path d="M7904 3885 c-7 -17 3 -35 19 -35 8 0 7 3 -2 9 -8 5 -11 16 -8 25 4 9
4 16 1 16 -2 0 -7 -7 -10 -15z"/>
<path d="M7956 3887 c3 -10 9 -15 12 -12 3 3 0 11 -7 18 -10 9 -11 8 -5 -6z"/>
<path d="M8062 3888 c-18 -18 -15 -64 6 -79 14 -11 15 -11 5 1 -16 18 -17 62
-1 78 7 7 10 12 7 12 -3 0 -10 -5 -17 -12z"/>
<path d="M8118 3890 c6 -8 12 -26 12 -40 0 -14 -6 -32 -12 -40 -11 -12 -10
-12 5 -1 9 7 17 26 17 41 0 15 -8 34 -17 41 -15 11 -16 11 -5 -1z"/>
<path d="M806 3854 c-4 -14 -5 -28 -3 -31 3 -2 8 8 11 23 4 14 5 28 3 31 -3 2
-8 -8 -11 -23z"/>
<path d="M7575 3872 c-6 -4 -8 -23 -5 -42 l6 -35 5 43 c2 23 4 42 4 42 0 0 -5
-4 -10 -8z"/>
<path d="M7798 3844 c-2 -19 0 -37 4 -40 4 -3 8 13 8 35 0 51 -6 53 -12 5z"/>
<path d="M1886 3824 c-9 -26 -14 -49 -12 -51 2 -2 11 17 20 43 9 26 14 49 12
51 -2 2 -11 -17 -20 -43z"/>
<path d="M5770 3830 c0 -19 7 -20 115 -20 108 0 115 1 115 20 0 19 -7 20 -115
20 -108 0 -115 -1 -115 -20z"/>
<path d="M7733 3834 c-3 -8 -2 -19 3 -24 5 -5 9 1 9 16 0 28 -3 30 -12 8z"/>
<path d="M7630 3821 c0 -10 19 -25 25 -20 1 2 -3 10 -11 17 -8 7 -14 8 -14 3z"/>
<path d="M791 3794 c0 -11 3 -14 6 -6 3 7 2 16 -1 19 -3 4 -6 -2 -5 -13z"/>
<path d="M770 3720 c-7 -28 -10 -53 -8 -55 3 -3 10 18 16 47 7 28 11 53 8 55
-2 2 -9 -19 -16 -47z"/>
<path d="M7893 3630 c0 -41 2 -58 4 -37 2 20 2 54 0 75 -2 20 -4 3 -4 -38z"/>
<path d="M7603 3625 c0 -38 2 -53 4 -32 2 20 2 52 0 70 -2 17 -4 1 -4 -38z"/>
<path d="M1821 3629 c-7 -22 -11 -43 -8 -45 2 -2 9 14 16 37 7 22 11 43 8 45
-2 2 -9 -14 -16 -37z"/>
<path d="M7675 3660 c-4 -6 3 -10 14 -10 25 0 27 6 6 13 -8 4 -17 2 -20 -3z"/>
<path d="M8135 3660 c-4 -6 3 -10 14 -10 25 0 27 6 6 13 -8 4 -17 2 -20 -3z"/>
<path d="M7643 3610 c0 -30 2 -43 4 -27 2 15 2 39 0 55 -2 15 -4 2 -4 -28z"/>
<path d="M7739 3643 c-13 -16 -12 -17 4 -4 9 7 17 15 17 17 0 8 -8 3 -21 -13z"/>
<path d="M7780 3656 c0 -2 8 -10 18 -17 15 -13 16 -12 3 4 -13 16 -21 21 -21
13z"/>
<path d="M7980 3656 c0 -2 8 -10 18 -17 15 -13 16 -12 3 4 -13 16 -21 21 -21
13z"/>
<path d="M751 3634 c0 -11 3 -14 6 -6 3 7 2 16 -1 19 -3 4 -6 -2 -5 -13z"/>
<path d="M7926 3634 c-9 -25 -7 -39 10 -60 14 -18 15 -18 4 4 -7 13 -9 35 -6
48 7 27 1 33 -8 8z"/>
<path d="M8047 3619 c7 -7 15 -10 18 -7 3 3 -2 9 -12 12 -14 6 -15 5 -6 -5z"/>
<path d="M742 3590 c0 -14 2 -19 5 -12 2 6 2 18 0 25 -3 6 -5 1 -5 -13z"/>
<path d="M7730 3581 c0 -6 4 -13 10 -16 6 -3 7 1 4 9 -7 18 -14 21 -14 7z"/>
<path d="M7796 3573 c-6 -14 -5 -15 5 -6 7 7 10 15 7 18 -3 3 -9 -2 -12 -12z"/>
<path d="M7992 3574 c-7 -8 -8 -14 -3 -14 10 0 25 19 20 25 -2 1 -10 -3 -17
-11z"/>
<path d="M1791 3524 c-7 -25 -10 -48 -8 -51 3 -2 10 17 16 43 7 25 10 48 8 51
-3 2 -10 -17 -16 -43z"/>
<path d="M725 3520 c-4 -23 -5 -43 -2 -46 2 -3 7 14 11 37 4 23 5 44 2 46 -2
2 -7 -14 -11 -37z"/>
<path d="M1150 3473 c49 -8 83 -27 101 -57 10 -17 19 -26 19 -21 0 37 -69 86
-117 84 -27 -2 -27 -2 -3 -6z"/>
<path d="M1095 3460 c-3 -6 1 -7 9 -4 18 7 21 14 7 14 -6 0 -13 -4 -16 -10z"/>
<path d="M712 3440 c0 -14 2 -19 5 -12 2 6 2 18 0 25 -3 6 -5 1 -5 -13z"/>
<path d="M1766 3424 c-4 -20 -5 -38 -3 -40 3 -3 8 11 11 32 4 20 5 38 3 40 -3
3 -8 -11 -11 -32z"/>
<path d="M1056 3425 c-12 -18 -16 -41 -13 -78 l3 -52 2 53 c1 29 9 64 18 77 9
14 14 25 11 25 -2 0 -12 -11 -21 -25z"/>
<path d="M9385 3418 c51 -18 113 -67 143 -111 58 -87 57 -79 60 -409 l3 -308
40 0 40 0 -3 308 -3 307 -28 57 c-16 32 -47 73 -69 93 -47 40 -133 75 -181 74
l-32 -1 30 -10z"/>
<path d="M702 3385 c0 -16 2 -22 5 -12 2 9 2 23 0 30 -3 6 -5 -1 -5 -18z"/>
<path d="M1273 3330 c0 -30 2 -43 4 -27 2 15 2 39 0 55 -2 15 -4 2 -4 -28z"/>
<path d="M1746 3334 c-4 -20 -5 -38 -3 -40 3 -3 8 11 11 32 4 20 5 38 3 40 -3
3 -8 -11 -11 -32z"/>
<path d="M692 3325 c0 -16 2 -22 5 -12 2 9 2 23 0 30 -3 6 -5 -1 -5 -18z"/>
<path d="M6327 3331 c51 -24 115 -86 145 -143 22 -42 23 -54 28 -358 l5 -315
40 0 40 0 0 300 0 300 -26 55 c-14 30 -38 69 -53 87 -35 41 -138 93 -185 93
l-36 0 42 -19z"/>
<path d="M682 3260 c0 -19 2 -27 5 -17 2 9 2 25 0 35 -3 9 -5 1 -5 -18z"/>
<path d="M1050 3285 c0 -5 5 -17 10 -25 5 -8 10 -10 10 -5 0 6 -5 17 -10 25
-5 8 -10 11 -10 5z"/>
<path d="M1732 3255 c0 -16 2 -22 5 -12 2 9 2 23 0 30 -3 6 -5 -1 -5 -18z"/>
<path d="M1240 3239 c-35 -43 -99 -51 -143 -19 -31 22 -31 22 -13 2 19 -22 19
-22 -5 -22 -30 -1 -35 -5 -139 -115 l-84 -90 99 98 100 97 106 0 105 0 76 -88
c104 -121 107 -126 84 -151 -11 -12 -31 -22 -45 -22 -25 -2 -25 -2 -3 -6 25
-5 72 30 72 52 0 7 -41 60 -91 118 -71 85 -95 107 -116 107 l-26 0 27 26 c14
15 26 31 26 35 0 13 -2 11 -30 -22z"/>
<path d="M9060 3160 c0 -40 4 -70 10 -70 6 0 10 14 10 31 0 27 3 30 27 27 19
-2 29 -10 33 -27 8 -33 30 -39 30 -9 0 13 -5 29 -11 35 -8 8 -7 16 2 31 20 31
-3 52 -57 52 l-44 0 0 -70z m80 30 c0 -16 -7 -20 -30 -20 -23 0 -30 4 -30 20
0 16 7 20 30 20 23 0 30 -4 30 -20z"/>
<path d="M9252 3163 c2 -42 8 -68 16 -71 9 -3 12 15 12 67 0 57 -3 71 -15 71
-13 0 -15 -12 -13 -67z"/>
<path d="M9370 3160 c0 -68 15 -98 22 -42 2 22 8 28 35 30 40 4 59 32 43 62
-8 15 -21 20 -55 20 l-45 0 0 -70z m77 34 c7 -18 -14 -35 -37 -31 -8 1 -16 12
-18 25 -3 18 1 22 23 22 14 0 28 -7 32 -16z"/>
<path d="M1715 3170 c-4 -28 -5 -53 -2 -56 2 -3 7 19 11 47 4 28 5 53 3 56 -3
2 -8 -19 -12 -47z"/>
<path d="M665 3140 c-4 -39 -5 -73 -2 -76 2 -3 8 27 11 67 4 39 5 73 3 76 -3
2 -8 -28 -12 -67z"/>
<path d="M5970 3086 c0 -52 3 -66 15 -66 9 0 15 10 15 26 0 22 4 25 28 22 19
-2 28 -9 30 -25 2 -13 10 -23 17 -23 9 0 12 6 8 16 -3 10 -7 38 -7 63 l-1 46
-52 3 -53 3 0 -65z m88 27 c-2 -11 -14 -19 -31 -21 -22 -3 -27 1 -27 17 0 17
6 21 31 21 24 0 30 -4 27 -17z"/>
<path d="M6170 3085 c0 -51 3 -65 15 -65 12 0 15 14 15 65 0 51 -3 65 -15 65
-12 0 -15 -14 -15 -65z"/>
<path d="M6285 3085 c0 -45 4 -65 13 -65 6 0 12 11 12 24 0 21 5 25 38 28 35
3 37 5 37 38 0 35 0 35 -50 38 l-50 3 0 -66z m80 25 c0 -9 -11 -16 -27 -18
-23 -3 -28 1 -28 18 0 17 5 21 28 18 16 -2 27 -9 27 -18z"/>
<path d="M9200 3105 c0 -8 5 -15 10 -15 6 0 10 7 10 15 0 8 -4 15 -10 15 -5 0
-10 -7 -10 -15z"/>
<path d="M9310 3104 c0 -17 22 -14 28 4 2 7 -3 12 -12 12 -9 0 -16 -7 -16 -16z"/>
<path d="M9462 3109 c2 -6 8 -10 13 -10 5 0 11 4 13 10 2 6 -4 11 -13 11 -9 0
-15 -5 -13 -11z"/>
<path d="M1702 3070 c0 -19 2 -27 5 -17 2 9 2 25 0 35 -3 9 -5 1 -5 -18z"/>
<path d="M653 3000 c0 -30 2 -43 4 -27 2 15 2 39 0 55 -2 15 -4 2 -4 -28z"/>
<path d="M5220 2970 l0 -70 -70 0 -70 0 0 -35 0 -35 70 0 70 0 0 -69 0 -69 35
-4 34 -4 3 71 3 70 68 3 67 3 0 34 0 35 -70 0 -70 0 0 70 0 70 -35 0 -35 0 0
-70z"/>
<path d="M6110 3030 c0 -5 7 -10 15 -10 8 0 15 5 15 10 0 6 -7 10 -15 10 -8 0
-15 -4 -15 -10z"/>
<path d="M6230 3030 c0 -5 5 -10 10 -10 6 0 10 5 10 10 0 6 -4 10 -10 10 -5 0
-10 -4 -10 -10z"/>
<path d="M6380 3030 c0 -5 7 -10 15 -10 8 0 15 5 15 10 0 6 -7 10 -15 10 -8 0
-15 -4 -15 -10z"/>
<path d="M985 2980 c-26 -27 -58 -51 -69 -53 -21 -4 -21 -4 -1 -6 13 0 42 20
75 54 30 30 52 55 49 55 -2 0 -27 -22 -54 -50z"/>
<path d="M1280 3013 c1 -11 70 -88 70 -78 0 4 -16 25 -35 46 -19 22 -35 36
-35 32z"/>
<path d="M1693 2980 c0 -25 2 -35 4 -22 2 12 2 32 0 45 -2 12 -4 2 -4 -23z"/>
<path d="M1098 3003 c34 -2 88 -2 120 0 31 2 3 3 -63 3 -66 0 -92 -1 -57 -3z"/>
<path d="M860 2956 c0 -2 8 -10 18 -17 15 -13 16 -12 3 4 -13 16 -21 21 -21
13z"/>
<path d="M981 2911 c-23 -27 -41 -52 -41 -55 0 -4 19 14 42 41 23 26 44 48 47
48 4 0 22 -12 41 -27 34 -26 34 -27 16 -47 -18 -20 -18 -22 8 -62 54 -80 10
-106 -63 -37 -25 24 -55 51 -66 59 -11 7 9 -14 45 -49 65 -62 86 -72 108 -50
18 18 15 35 -12 75 -23 34 -24 37 -8 61 16 24 15 25 -23 58 -22 19 -43 34 -47
34 -3 0 -25 -22 -47 -49z"/>
<path d="M1239 2923 l-34 -38 38 34 37 35 40 -39 c22 -21 40 -47 40 -57 0 -9
-15 -28 -33 -42 -18 -14 -43 -40 -56 -58 -15 -21 -2 -11 38 27 33 33 61 66 61
74 0 14 -77 101 -90 101 -3 0 -22 -17 -41 -37z"/>
<path d="M1683 2875 c0 -33 2 -45 4 -27 2 18 2 45 0 60 -2 15 -4 0 -4 -33z"/>
<path d="M644 2830 c0 -52 1 -74 3 -47 2 26 2 68 0 95 -2 26 -3 4 -3 -48z"/>
<path d="M1220 2864 c11 -18 9 -26 -15 -62 -27 -41 -27 -43 -10 -62 10 -11 25
-20 34 -19 11 0 9 3 -5 9 -35 14 -37 29 -10 70 31 46 31 53 9 71 -15 13 -15
12 -3 -7z"/>
<path d="M1670 2705 l0 -95 -514 0 -515 0 -4 48 -3 47 -2 -52 -2 -53 525 0
525 0 0 100 c0 55 -2 100 -5 100 -3 0 -5 -43 -5 -95z"/>
<path d="M8842 2408 l-2 -78 53 2 52 2 -47 3 -47 4 -4 72 -3 72 -2 -77z"/>
<path d="M9689 2453 c-3 -67 -1 -104 5 -110 3 -3 6 26 6 65 0 40 -2 72 -5 72
-3 0 -6 -12 -6 -27z"/>
<path d="M9429 2455 c-2 -11 -2 -40 2 -65 l6 -45 1 43 c1 26 7 42 15 42 8 0 9
3 1 8 -6 4 -13 14 -16 22 -3 11 -6 9 -9 -5z"/>
<path d="M8979 2418 c22 -25 23 -29 9 -45 -8 -10 -18 -25 -22 -33 -4 -8 3 -2
15 13 l22 29 24 -29 25 -28 -22 33 c-20 31 -21 34 -6 51 9 10 16 22 16 27 0 4
-7 -2 -16 -15 l-16 -22 -27 23 -26 23 24 -27z"/>
<path d="M9070 2364 c0 -43 2 -75 4 -73 9 9 12 140 4 145 -4 3 -8 -30 -8 -72z"/>
<path d="M9147 2430 c6 -8 13 -28 16 -45 l4 -30 2 31 c0 20 -6 37 -16 45 -16
12 -16 12 -6 -1z"/>
<path d="M9205 2429 c-11 -16 -1 -19 13 -3 7 8 8 14 3 14 -5 0 -13 -5 -16 -11z"/>
<path d="M9250 2436 c0 -2 7 -7 16 -10 8 -3 12 -2 9 4 -6 10 -25 14 -25 6z"/>
<path d="M9320 2425 c-7 -9 -11 -17 -9 -20 3 -2 10 5 17 15 14 24 10 26 -8 5z"/>
<path d="M9370 2436 c0 -2 8 -10 18 -17 15 -13 16 -12 3 4 -13 16 -21 21 -21
13z"/>
<path d="M9499 2423 c-13 -16 -12 -17 4 -4 16 13 21 21 13 21 -2 0 -10 -8 -17
-17z"/>
<path d="M9615 2430 c-3 -6 1 -7 9 -4 18 7 21 14 7 14 -6 0 -13 -4 -16 -10z"/>
<path d="M930 2355 l0 -75 44 0 c27 0 51 6 60 16 20 19 20 29 1 48 -13 12 -13
19 -3 35 19 30 -5 51 -58 51 l-44 0 0 -75z m94 49 c10 -25 -14 -45 -48 -42
-25 2 -32 8 -34 31 -3 25 -1 27 36 27 28 0 42 -5 46 -16z m1 -84 c0 -22 -4
-25 -40 -25 -36 0 -40 3 -43 28 -3 27 -2 28 40 25 38 -3 43 -6 43 -28z"/>
<path d="M1273 2355 c0 -44 2 -62 4 -40 5 46 18 65 44 65 14 0 19 -10 22 -47
l4 -48 -1 50 c-1 50 -1 50 -33 49 -27 -2 -32 2 -36 25 -2 14 -4 -10 -4 -54z"/>
<path d="M1211 2408 c-1 -12 -9 -18 -25 -18 -14 0 -28 -5 -32 -11 -4 -8 -9 -7
-15 2 -5 9 -8 -9 -7 -46 1 -46 2 -51 5 -20 5 48 18 65 49 65 22 0 24 -4 24
-50 0 -41 3 -50 18 -49 10 0 12 3 5 6 -8 3 -13 23 -13 49 0 28 4 44 13 44 8 0
9 3 1 8 -6 4 -14 14 -17 22 -4 12 -6 11 -6 -2z"/>
<path d="M9600 2389 c0 -13 5 -31 10 -39 7 -11 8 -5 4 20 -8 43 -14 51 -14 19z"/>
<path d="M9190 2384 c0 -8 5 -12 10 -9 6 4 8 11 5 16 -9 14 -15 11 -15 -7z"/>
<path d="M1083 2335 c0 -33 2 -45 4 -27 2 18 2 45 0 60 -2 15 -4 0 -4 -33z"/>
<path d="M9310 2361 c0 -10 29 -36 34 -30 1 2 -6 12 -16 22 -10 9 -18 13 -18
8z"/>
<path d="M9490 2363 c0 -6 8 -17 18 -24 16 -13 16 -13 2 6 -8 11 -16 22 -17
24 -2 2 -3 0 -3 -6z"/>
<path d="M9200 2356 c0 -2 8 -10 18 -17 15 -13 16 -12 3 4 -13 16 -21 21 -21
13z"/>
<path d="M9379 2343 c-13 -16 -12 -17 4 -4 9 7 17 15 17 17 0 8 -8 3 -21 -13z"/>
<path d="M9559 2343 c-13 -16 -12 -17 4 -4 16 13 21 21 13 21 -2 0 -10 -8 -17
-17z"/>
<path d="M9140 2340 c-9 -6 -10 -10 -3 -10 6 0 15 5 18 10 8 12 4 12 -15 0z"/>
<path d="M9260 2340 c-9 -6 -10 -10 -3 -10 6 0 15 5 18 10 8 12 4 12 -15 0z"/>
<path d="M8986 2185 c-6 -17 5 -26 21 -17 8 5 7 11 -2 19 -10 10 -14 9 -19 -2z"/>
<path d="M9090 2171 c14 -4 26 -15 28 -24 3 -13 -4 -17 -31 -17 -20 0 -38 6
-40 13 -3 6 -6 -2 -6 -19 -1 -19 6 -37 17 -45 14 -11 15 -11 5 1 -24 26 -15
40 27 40 32 0 40 4 40 18 0 24 -20 42 -44 41 -18 -1 -17 -2 4 -8z"/>
<path d="M9332 2168 c-7 -7 -12 -16 -12 -22 0 -5 6 -3 13 6 6 9 21 18 32 21
20 5 20 5 0 6 -12 0 -26 -4 -33 -11z"/>
<path d="M9439 2163 c-13 -16 -12 -17 3 -4 10 7 29 11 43 9 13 -3 22 -1 19 3
-9 15 -51 10 -65 -8z"/>
<path d="M9575 2170 c-3 -6 1 -7 9 -4 18 7 21 14 7 14 -6 0 -13 -4 -16 -10z"/>
<path d="M9626 2171 c-3 -4 6 -6 19 -3 14 2 25 6 25 8 0 8 -39 4 -44 -5z"/>
<path d="M9285 2159 c-4 -6 -5 -12 -2 -15 2 -3 7 2 10 11 7 17 1 20 -8 4z"/>
<path d="M9395 2153 c5 -20 2 -22 -37 -26 l-43 -4 48 -1 c49 -2 58 7 36 38 -8
12 -9 10 -4 -7z"/>
<path d="M9553 2115 c0 -27 2 -38 4 -22 2 15 2 37 0 50 -2 12 -4 0 -4 -28z"/>
<path d="M9682 2106 c7 -8 15 -12 17 -11 5 6 -10 25 -20 25 -5 0 -4 -6 3 -14z"/>
<path d="M4080 2105 c0 -3 8 -17 17 -31 9 -14 19 -42 22 -62 8 -47 24 -47 31
-1 4 20 16 50 29 67 17 24 19 32 8 32 -8 0 -23 -12 -32 -27 l-18 -26 -19 26
c-18 24 -38 36 -38 22z"/>
<path d="M4220 2043 l0 -68 47 2 c63 2 66 5 18 12 l-40 6 0 58 c0 39 -4 57
-12 57 -9 0 -13 -20 -13 -67z"/>
<path d="M4340 2042 l0 -67 48 3 c54 4 72 21 72 67 0 43 -27 65 -78 65 l-42 0
0 -68z m92 23 c15 -33 -13 -78 -45 -73 -19 3 -22 10 -25 51 -3 47 -3 47 28 47
23 0 33 -6 42 -25z"/>
<path d="M9116 2083 c-6 -14 -5 -15 5 -6 7 7 10 15 7 18 -3 3 -9 -2 -12 -12z"/>
<path d="M9248 2078 c2 -10 6 -18 7 -18 1 0 5 8 7 18 3 11 0 19 -7 19 -7 0
-10 -8 -7 -19z"/>
<path d="M9389 2083 c-13 -16 -12 -17 4 -4 16 13 21 21 13 21 -2 0 -10 -8 -17
-17z"/>
<path d="M9500 2091 c0 -6 4 -13 10 -16 6 -3 7 1 4 9 -7 18 -14 21 -14 7z"/>
<path d="M6105 2043 c14 -21 25 -50 25 -65 0 -18 5 -28 15 -28 10 0 15 10 15
28 0 15 9 42 21 61 25 42 15 55 -15 18 l-23 -28 -17 25 c-9 14 -23 26 -32 26
-11 0 -9 -9 11 -37z"/>
<path d="M6230 2013 l0 -68 45 0 c52 0 61 12 13 17 -33 3 -33 4 -36 61 -4 80
-22 72 -22 -10z"/>
<path d="M6350 2013 l0 -68 45 0 c52 0 61 12 13 17 -33 3 -33 4 -36 61 -4 80
-22 72 -22 -10z"/>
<path d="M3637 1829 c16 -26 31 -45 35 -43 4 3 1 12 -7 22 -51 62 -54 64 -28
21z"/>
<path d="M3696 1838 l-18 -33 21 25 c18 22 26 40 18 40 -1 0 -11 -15 -21 -32z"/>
<path d="M4153 1800 c0 -41 2 -58 4 -37 2 20 2 54 0 75 -2 20 -4 3 -4 -38z"/>
<path d="M4500 1844 c0 -17 -4 -23 -12 -18 -9 5 -9 3 1 -9 7 -10 11 -30 9 -47
-3 -17 -1 -33 4 -36 4 -3 8 27 8 65 0 39 -2 71 -5 71 -3 0 -5 -12 -5 -26z"/>
<path d="M4843 1800 c0 -41 2 -57 4 -35 3 22 10 46 16 54 9 11 9 13 0 8 -7 -5
-13 2 -16 20 -2 16 -4 -6 -4 -47z"/>
<path d="M4790 1845 c-4 -34 1 -100 8 -107 7 -7 5 62 -2 107 l-3 20 -3 -20z"/>
<path d="M5946 1800 c15 -22 29 -40 33 -40 7 0 51 66 51 77 0 4 -12 -10 -26
-31 l-26 -38 -24 36 c-14 20 -27 36 -30 36 -2 0 8 -18 22 -40z"/>
<path d="M6584 1826 c-3 -7 -4 -40 -2 -72 l3 -59 5 73 c5 72 4 84 -6 58z"/>
<path d="M3885 1820 c3 -5 8 -10 11 -10 2 0 4 5 4 10 0 6 -5 10 -11 10 -5 0
-7 -4 -4 -10z"/>
<path d="M4000 1819 c0 -5 5 -7 10 -4 6 3 10 8 10 11 0 2 -4 4 -10 4 -5 0 -10
-5 -10 -11z"/>
<path d="M4040 1826 c0 -2 7 -7 16 -10 8 -3 12 -2 9 4 -6 10 -25 14 -25 6z"/>
<path d="M4193 1785 c0 -27 2 -38 4 -22 2 15 2 37 0 50 -2 12 -4 0 -4 -28z"/>
<path d="M4325 1819 c-4 -6 -5 -12 -2 -15 2 -3 7 2 10 11 7 17 1 20 -8 4z"/>
<path d="M4378 1820 c20 -23 14 -30 -28 -30 -22 0 -40 -3 -40 -8 0 -4 20 -6
45 -4 48 4 58 20 28 43 -15 11 -16 11 -5 -1z"/>
<path d="M4432 1818 c-25 -25 -8 -89 23 -88 5 0 2 5 -7 11 -21 12 -24 59 -6
77 7 7 10 12 7 12 -3 0 -10 -5 -17 -12z"/>
<path d="M4647 1816 c-4 -10 -3 -15 3 -11 6 3 10 1 10 -6 0 -7 3 -10 6 -6 3 3
2 13 -4 22 -8 16 -9 16 -15 1z"/>
<path d="M4711 1814 c0 -11 3 -14 6 -6 3 7 2 16 -1 19 -3 4 -6 -2 -5 -13z"/>
<path d="M4743 1780 c0 -30 2 -43 4 -27 2 15 2 39 0 55 -2 15 -4 2 -4 -28z"/>
<path d="M4910 1777 l5 -52 3 44 c2 24 0 47 -5 52 -4 4 -6 -15 -3 -44z"/>
<path d="M3721 1775 c0 -11 3 -14 6 -7 2 7 22 12 44 12 21 0 39 3 39 8 0 4
-20 7 -45 7 -39 0 -45 -3 -44 -20z"/>
<path d="M4007 1789 c7 -7 15 -10 18 -7 3 3 -2 9 -12 12 -14 6 -15 5 -6 -5z"/>
<path d="M6042 1788 c-7 -7 -12 -23 -11 -37 0 -15 3 -20 6 -13 2 7 22 12 44
12 21 0 39 3 39 8 0 4 -18 6 -40 4 -41 -4 -50 4 -28 26 7 7 10 12 7 12 -3 0
-10 -5 -17 -12z"/>
<path d="M6195 1790 c3 -5 8 -10 11 -10 2 0 4 5 4 10 0 6 -5 10 -11 10 -5 0
-7 -4 -4 -10z"/>
<path d="M6246 1787 c3 -10 9 -15 12 -12 3 3 0 11 -7 18 -10 9 -11 8 -5 -6z"/>
<path d="M6469 1783 c-13 -16 -12 -17 4 -4 9 7 17 15 17 17 0 8 -8 3 -21 -13z"/>
<path d="M4056 1766 c4 -11 2 -21 -7 -27 -10 -6 -11 -9 -1 -9 18 0 27 29 13
43 -9 9 -11 8 -5 -7z"/>
<path d="M4240 1763 c0 -15 18 -35 23 -27 3 5 -1 15 -9 22 -8 7 -14 9 -14 5z"/>
<path d="M6318 1758 c5 -5 16 -8 23 -6 8 3 3 7 -10 11 -17 4 -21 3 -13 -5z"/>
<path d="M6541 1758 c0 -9 -4 -25 -7 -35 -5 -17 -5 -17 6 0 6 10 9 25 7 35 -4
15 -5 15 -6 0z"/>
<path d="M3786 1745 c-11 -8 -15 -15 -9 -15 6 0 16 7 23 15 16 19 11 19 -14 0z"/>
<path d="M3890 1751 c0 -6 4 -13 10 -16 6 -3 7 1 4 9 -7 18 -14 21 -14 7z"/>
<path d="M3990 1756 c0 -2 8 -10 18 -17 15 -13 16 -12 3 4 -13 16 -21 21 -21
13z"/>
<path d="M4379 1743 c-13 -16 -12 -17 4 -4 9 7 17 15 17 17 0 8 -8 3 -21 -13z"/>
<path d="M3737 1739 c7 -7 15 -10 18 -7 3 3 -2 9 -12 12 -14 6 -15 5 -6 -5z"/>
<path d="M4615 1740 c3 -5 8 -10 11 -10 2 0 4 5 4 10 0 6 -5 10 -11 10 -5 0
-7 -4 -4 -10z"/>
<path d="M6366 1736 c4 -11 2 -21 -7 -27 -10 -6 -11 -9 -1 -9 18 0 27 29 13
43 -9 9 -11 8 -5 -7z"/>
<path d="M6460 1731 c0 -10 29 -36 34 -30 1 2 -6 12 -16 22 -10 9 -18 13 -18
8z"/>
<path d="M6096 1715 c-11 -8 -15 -15 -9 -15 6 0 16 7 23 15 16 19 11 19 -14 0z"/>
<path d="M6200 1721 c0 -6 4 -13 10 -16 6 -3 7 1 4 9 -7 18 -14 21 -14 7z"/>
<path d="M6300 1726 c0 -2 8 -10 18 -17 15 -13 16 -12 3 4 -13 16 -21 21 -21
13z"/>
<path d="M6047 1709 c7 -7 15 -10 18 -7 3 3 -2 9 -12 12 -14 6 -15 5 -6 -5z"/>
<path d="M3850 1563 c0 -55 3 -70 15 -70 10 0 12 4 5 12 -5 6 -9 34 -8 64 0
29 -3 55 -6 58 -3 4 -6 -25 -6 -64z"/>
<path d="M4003 1560 c0 -41 2 -58 4 -37 2 20 2 54 0 75 -2 20 -4 3 -4 -38z"/>
<path d="M4363 1560 c0 -41 2 -58 4 -37 2 20 2 54 0 75 -2 20 -4 3 -4 -38z"/>
<path d="M4403 1560 c0 -41 2 -58 4 -37 2 20 2 54 0 75 -2 20 -4 3 -4 -38z"/>
<path d="M5983 1530 c0 -41 2 -58 4 -37 2 20 2 54 0 75 -2 20 -4 3 -4 -38z"/>
<path d="M6273 1530 c0 -41 2 -58 4 -37 2 20 2 54 0 75 -2 20 -4 3 -4 -38z"/>
<path d="M3500 1569 c-6 -11 -9 -28 -7 -37 4 -13 5 -11 6 5 0 12 8 29 17 37 8
9 11 16 5 16 -6 0 -15 -9 -21 -21z"/>
<path d="M3561 1573 c7 -10 15 -20 16 -22 2 -2 3 3 3 11 0 9 -7 19 -16 22 -15
6 -15 4 -3 -11z"/>
<path d="M3613 1540 c0 -30 2 -43 4 -27 2 15 2 39 0 55 -2 15 -4 2 -4 -28z"/>
<path d="M3800 1583 c5 -2 10 -22 10 -43 0 -21 4 -41 8 -44 4 -2 5 16 2 41 -3
26 -11 48 -18 49 -7 1 -8 0 -2 -3z"/>
<path d="M3918 1580 c6 -8 12 -26 12 -40 0 -14 -6 -32 -12 -40 -11 -12 -10
-12 5 -1 9 7 17 26 17 41 0 15 -8 34 -17 41 -15 11 -16 11 -5 -1z"/>
<path d="M4043 1540 c0 -30 2 -43 4 -27 2 15 2 39 0 55 -2 15 -4 2 -4 -28z"/>
<path d="M4078 1583 c6 -2 18 -2 25 0 6 3 1 5 -13 5 -14 0 -19 -2 -12 -5z"/>
<path d="M4552 1578 c-18 -18 -15 -64 6 -79 14 -11 15 -11 5 1 -16 18 -17 62
-1 78 7 7 10 12 7 12 -3 0 -10 -5 -17 -12z"/>
<path d="M4602 1576 c7 -8 15 -12 17 -11 5 6 -10 25 -20 25 -5 0 -4 -6 3 -14z"/>
<path d="M4690 1586 c0 -2 8 -10 18 -17 15 -13 16 -12 3 4 -13 16 -21 21 -21
13z"/>
<path d="M4743 1575 c-3 -9 -3 -19 1 -22 3 -4 6 1 6 10 0 8 6 18 13 20 9 4 9
6 -1 6 -7 1 -15 -6 -19 -14z"/>
<path d="M4898 1565 c-12 -27 2 -75 22 -75 7 0 4 7 -4 16 -9 8 -16 24 -16 34
0 10 7 26 16 34 8 9 11 16 4 16 -6 0 -16 -11 -22 -25z"/>
<path d="M4950 1586 c0 -2 8 -10 18 -17 15 -13 16 -12 3 4 -13 16 -21 21 -21
13z"/>
<path d="M5013 1540 c0 -30 2 -43 4 -27 2 15 2 39 0 55 -2 15 -4 2 -4 -28z"/>
<path d="M6519 1575 c-7 -34 5 -108 19 -111 7 -1 8 0 2 3 -15 7 -13 83 3 83 8
0 9 3 1 8 -6 4 -13 14 -16 22 -3 11 -6 9 -9 -5z"/>
<path d="M6058 1567 c-2 -7 -1 -34 3 -62 l6 -50 1 47 c1 25 6 48 11 50 5 2 3
8 -4 15 -10 9 -14 9 -17 0z"/>
<path d="M3657 1549 c7 -7 15 -10 18 -7 3 3 -2 9 -12 12 -14 6 -15 5 -6 -5z"/>
<path d="M4657 1549 c7 -7 15 -10 18 -7 3 3 -2 9 -12 12 -14 6 -15 5 -6 -5z"/>
<path d="M6023 1510 c0 -30 2 -43 4 -27 2 15 2 39 0 55 -2 15 -4 2 -4 -28z"/>
<path d="M6115 1549 c-11 -16 -1 -19 13 -3 7 8 8 14 3 14 -5 0 -13 -5 -16 -11z"/>
<path d="M6172 1538 c7 -15 15 -23 17 -17 2 6 -4 18 -13 27 -15 15 -15 15 -4
-10z"/>
<path d="M6315 1550 c-3 -6 1 -7 9 -4 18 7 21 14 7 14 -6 0 -13 -4 -16 -10z"/>
<path d="M6371 1543 c7 -12 15 -20 18 -17 3 2 -3 12 -13 22 -17 16 -18 16 -5
-5z"/>
<path d="M6460 1556 c0 -2 7 -9 15 -16 13 -11 14 -10 9 4 -5 14 -24 23 -24 12z"/>
<path d="M3705 1515 c0 -13 3 -21 8 -18 4 2 7 10 7 18 0 8 -3 16 -7 18 -5 3
-8 -5 -8 -18z"/>
<path d="M3743 1524 c-3 -8 -2 -19 3 -24 5 -5 9 1 9 16 0 28 -3 30 -12 8z"/>
<path d="M4699 1531 c9 -6 11 -16 7 -27 -6 -15 -4 -16 5 -7 14 14 5 43 -13 43
-10 0 -9 -3 1 -9z"/>
<path d="M4800 1533 c5 -2 10 -11 10 -18 0 -7 -5 -16 -10 -18 -6 -3 -5 -4 2
-3 7 2 13 11 13 21 0 10 -6 19 -13 21 -7 1 -8 0 -2 -3z"/>
<path d="M3563 1510 c-11 -16 -10 -18 2 -14 8 4 15 12 15 20 0 19 -3 18 -17
-6z"/>
<path d="M6302 1510 c0 -14 2 -19 5 -12 2 6 2 18 0 25 -3 6 -5 1 -5 -13z"/>
<path d="M6427 1519 c7 -7 15 -10 18 -7 3 3 -2 9 -12 12 -14 6 -15 5 -6 -5z"/>
<path d="M3640 1516 c0 -2 8 -10 18 -17 15 -13 16 -12 3 4 -13 16 -21 21 -21
13z"/>
<path d="M4640 1516 c0 -2 8 -10 18 -17 15 -13 16 -12 3 4 -13 16 -21 21 -21
13z"/>
<path d="M4740 1511 c0 -10 19 -25 25 -20 1 2 -3 10 -11 17 -8 7 -14 8 -14 3z"/>
<path d="M6100 1509 c0 -17 20 -49 31 -49 6 0 3 7 -6 16 -9 9 -14 23 -11 30 3
8 1 14 -4 14 -6 0 -10 -5 -10 -11z"/>
<path d="M4165 1500 c3 -5 8 -10 11 -10 2 0 4 5 4 10 0 6 -5 10 -11 10 -5 0
-7 -4 -4 -10z"/>
<path d="M6475 1485 c0 -13 3 -21 8 -18 4 2 7 10 7 18 0 8 -3 16 -7 18 -5 3
-8 -5 -8 -18z"/>
<path d="M6371 1477 c-13 -21 -12 -21 5 -5 10 10 16 20 13 22 -3 3 -11 -5 -18
-17z"/>
<path d="M6169 1473 c-13 -16 -12 -17 4 -4 16 13 21 21 13 21 -2 0 -10 -8 -17
-17z"/>
<path d="M6410 1486 c0 -2 8 -10 18 -17 15 -13 16 -12 3 4 -13 16 -21 21 -21
13z"/>
<path d="M6317 1469 c7 -7 15 -10 18 -7 3 3 -2 9 -12 12 -14 6 -15 5 -6 -5z"/>
<path d="M4157 1340 c6 -8 13 -33 16 -55 l4 -40 1 41 c1 29 -3 46 -15 55 -16
12 -17 12 -6 -1z"/>
<path d="M4352 1300 c1 -42 2 -46 5 -18 3 24 12 43 26 53 12 8 16 15 10 15 -7
0 -15 -5 -19 -11 -4 -8 -9 -7 -15 2 -5 9 -8 -7 -7 -41z"/>
<path d="M4063 1295 c0 -27 2 -38 4 -22 2 15 2 37 0 50 -2 12 -4 0 -4 -28z"/>
<path d="M4103 1295 c0 -27 2 -38 4 -22 2 15 2 37 0 50 -2 12 -4 0 -4 -28z"/>
<path d="M4242 1313 c-2 -37 6 -63 20 -63 7 0 7 4 0 13 -6 6 -12 28 -15 47
l-4 35 -1 -32z"/>
<path d="M4410 1335 c0 -5 5 -17 10 -25 5 -8 10 -10 10 -5 0 6 -5 17 -10 25
-5 8 -10 11 -10 5z"/>
<path d="M4436 1263 c9 -36 10 -38 16 -16 3 10 -1 24 -9 32 -12 10 -13 8 -7
-16z"/>
</g>
</svg>
