<?xml version="1.0" standalone="no"?>
<!DOCTYPE svg PUBLIC "-//W3C//DTD SVG 20010904//EN"
 "http://www.w3.org/TR/2001/REC-SVG-20010904/DTD/svg10.dtd">
<svg version="1.0" xmlns="http://www.w3.org/2000/svg"
 width="158.000000pt" height="158.000000pt" viewBox="0 0 158.000000 158.000000"
 preserveAspectRatio="xMidYMid meet">
<metadata>
Created by potrace 1.13, written by Peter Selinger 2001-2015
</metadata>
<g transform="translate(0.000000,158.000000) scale(0.100000,-0.100000)"
fill="#000000" stroke="none">
<path d="M591 1550 c-271 -71 -485 -282 -563 -556 -32 -113 -32 -297 0 -407
80 -280 292 -488 572 -564 99 -27 291 -24 395 5 151 43 299 138 390 252 50 62
125 186 125 207 0 5 -36 14 -80 19 l-80 9 0 -31 c0 -28 -5 -34 -58 -57 -74
-34 -149 -53 -241 -62 l-74 -7 7 48 c4 27 9 99 13 161 l6 112 -30 34 -30 34
-6 -121 c-7 -126 -23 -246 -35 -258 -10 -10 -153 9 -246 33 -106 27 -206 68
-206 85 0 7 17 67 39 132 49 151 136 336 153 329 44 -19 180 -59 184 -55 3 3
-3 21 -12 40 -13 29 -25 37 -64 47 -26 7 -56 18 -66 26 -17 12 -16 16 19 73
36 59 47 111 28 140 -9 15 -32 -12 -94 -110 -20 -32 -42 -58 -47 -58 -19 0
-153 137 -148 152 5 18 137 83 221 109 54 17 68 26 73 45 4 14 4 28 0 31 -10
11 -167 -36 -245 -72 -40 -19 -75 -35 -77 -35 -12 0 -1 59 16 87 33 55 64 68
160 68 47 0 101 -3 121 -8 35 -7 37 -6 41 24 4 26 1 33 -21 42 l-26 11 32 4
c24 2 34 10 42 33 l10 29 -62 -1 c-34 0 -95 -9 -136 -19z m-251 -260 c-5 -59
-5 -59 -71 -114 -36 -30 -88 -82 -114 -115 -26 -34 -49 -61 -51 -61 -7 0 48
116 79 168 27 45 146 182 158 182 2 0 2 -27 -1 -60z m95 -198 c35 -38 79 -77
98 -87 l34 -18 -53 -113 c-53 -110 -124 -305 -124 -338 0 -24 -20 -20 -76 15
-67 43 -164 144 -192 201 l-22 46 20 55 c30 81 88 163 168 240 38 37 73 67 76
67 4 0 35 -31 71 -68z m-150 -607 l76 -50 -7 -100 c-3 -55 -8 -102 -11 -105
-8 -8 -128 128 -162 184 -39 65 -77 156 -86 209 l-7 38 60 -63 c34 -35 95 -86
137 -113z m260 -126 c83 -29 189 -52 288 -64 l58 -7 -7 -31 c-13 -62 -57 -158
-79 -173 -37 -24 -222 8 -316 57 -53 27 -67 75 -61 213 2 42 4 47 20 41 9 -4
53 -20 97 -36z m755 -37 c-47 -83 -137 -153 -256 -198 -71 -27 -144 -45 -144
-36 0 3 11 33 24 66 13 34 27 78 31 99 7 34 10 37 39 37 53 0 218 31 266 50
63 25 64 25 40 -18z"/>
</g>
</svg>
